<svg width="18" height="18" viewBox="0 0 18 18" fill="none" xmlns="http://www.w3.org/2000/svg">
<path d="M9.16146 9.90996C8.32979 9.90996 7.5168 9.66334 6.8253 9.20129C6.1338 8.73924 5.59483 8.08251 5.27657 7.31415C4.9583 6.54579 4.87503 5.70031 5.03728 4.88463C5.19953 4.06894 5.60002 3.31969 6.18809 2.73161C6.77617 2.14353 7.52542 1.74305 8.34111 1.5808C9.1568 1.41855 10.0023 1.50182 10.7706 1.82009C11.539 2.13835 12.1957 2.67731 12.6578 3.36882C13.1198 4.06032 13.3664 4.87331 13.3664 5.70498C13.3652 6.81983 12.9218 7.88868 12.1335 8.677C11.3452 9.46532 10.2763 9.90874 9.16146 9.90996V9.90996ZM9.16146 2.42224C8.51201 2.42224 7.87715 2.61483 7.33716 2.97566C6.79718 3.33649 6.37632 3.84935 6.12782 4.44938C5.87932 5.04941 5.81435 5.70965 5.9411 6.34661C6.06786 6.98357 6.38066 7.56863 6.83994 8.02781C7.29923 8.48698 7.88436 8.79965 8.52135 8.92625C9.15834 9.05286 9.81857 8.98773 10.4185 8.73909C11.0185 8.49045 11.5313 8.06948 11.892 7.52941C12.2527 6.98933 12.4451 6.35443 12.445 5.70498C12.4439 4.83452 12.0977 4.00002 11.4821 3.38458C10.8665 2.76915 10.0319 2.42305 9.16146 2.42224V2.42224Z" fill="#1B94D3"/>
<path d="M15.363 16.5007C15.2408 16.5007 15.1236 16.4522 15.0372 16.3658C14.9508 16.2794 14.9022 16.1622 14.9022 16.04V15.514C14.9012 14.7026 14.5784 13.9247 14.0046 13.3511C13.4307 12.7774 12.6528 12.4548 11.8414 12.4539H6.48152C5.67019 12.4548 4.89233 12.7774 4.31864 13.3511C3.74494 13.9248 3.42228 14.7027 3.42147 15.514V16.04C3.42147 16.1622 3.37293 16.2794 3.28652 16.3658C3.20012 16.4522 3.08293 16.5007 2.96074 16.5007C2.83854 16.5007 2.72135 16.4522 2.63495 16.3658C2.54854 16.2794 2.5 16.1622 2.5 16.04V15.514C2.50122 14.4584 2.92109 13.4464 3.66751 12.7C4.41392 11.9536 5.42593 11.5337 6.48152 11.5325H11.8414C12.8971 11.5337 13.9092 11.9535 14.6557 12.6999C15.4022 13.4463 15.8223 14.4583 15.8237 15.514V16.04C15.8237 16.1622 15.7752 16.2794 15.6887 16.3658C15.6023 16.4522 15.4852 16.5007 15.363 16.5007V16.5007Z" fill="#1B94D3"/>
</svg>
