<svg width="70" height="70" viewBox="0 0 70 70" fill="none" xmlns="http://www.w3.org/2000/svg">
<path d="M57.6266 6.64072V1H8V62.9615H13.3734V68.6101H63V6.64072H57.6266ZM10.3585 60.603V3.35849H55.2681V60.603H10.3585ZM60.6415 66.2516H15.7319V62.9733H57.6266V8.99921H60.6415V66.2516Z" fill="#5FAEC9"/>
<path d="M48.5818 12.2261H17.0488V17.7056H48.5818V12.2261Z" fill="#5FAEC9"/>
<path d="M48.5818 22.4473H17.0488V24.9591H48.5818V22.4473Z" fill="#5FAEC9"/>
<path d="M48.5818 28.6138H17.0488V31.1256H48.5818V28.6138Z" fill="#5FAEC9"/>
<path d="M48.5818 34.7773H17.0488V37.2891H48.5818V34.7773Z" fill="#5FAEC9"/>
<path d="M36.5849 40.9448H17.0488V43.4566H36.5849V40.9448Z" fill="#5FAEC9"/>
<path d="M36.5849 47.1084H17.0488V49.6202H36.5849V47.1084Z" fill="#5FAEC9"/>
</svg>
