<svg width="22" height="19" viewBox="0 0 22 19" fill="none" xmlns="http://www.w3.org/2000/svg">
<g clip-path="url(#clip0_302_566)">
<path d="M21.1758 3.65843H15.4949V3.07288C15.494 2.2576 15.1696 1.47601 14.5928 0.899828C14.016 0.323645 13.234 -4.58409e-07 12.4187 0L9.48287 0C8.66957 0.00301818 7.89057 0.327996 7.31624 0.903853C6.74191 1.47971 6.419 2.25958 6.41815 3.07288V3.65843H0.733969C0.539308 3.65843 0.35262 3.73575 0.214974 3.8734C0.0773286 4.01105 0 4.19773 0 4.39239C0 4.58705 0.0773286 4.77374 0.214974 4.91139C0.35262 5.04903 0.539308 5.12636 0.733969 5.12636H2.08773V14.0808C2.08903 15.3862 2.60862 16.6376 3.53228 17.5601C4.45594 18.4825 5.70809 19.0004 7.01348 19H14.9045C16.2087 18.9987 17.4592 18.48 18.3814 17.5578C19.3037 16.6355 19.8224 15.385 19.8237 14.0808V5.12636H21.1758C21.3705 5.12636 21.5572 5.04903 21.6948 4.91139C21.8324 4.77374 21.9098 4.58705 21.9098 4.39239C21.9098 4.19773 21.8324 4.01105 21.6948 3.8734C21.5572 3.73575 21.3705 3.65843 21.1758 3.65843V3.65843ZM7.88608 3.07288C7.88652 2.64736 8.05575 2.23938 8.35664 1.93849C8.65753 1.6376 9.0655 1.46837 9.49103 1.46794H12.4269C12.8516 1.46966 13.2583 1.63946 13.5581 1.94021C13.858 2.24097 14.0265 2.6482 14.027 3.07288V3.65843H7.88608V3.07288ZM18.3557 14.0808C18.3544 14.9957 17.9904 15.8728 17.3434 16.5198C16.6965 17.1667 15.8194 17.5308 14.9045 17.5321H7.01348C6.55982 17.5325 6.11052 17.4436 5.69123 17.2703C5.27194 17.0971 4.89088 16.843 4.56979 16.5226C4.2487 16.2021 3.99388 15.8215 3.81988 15.4025C3.64588 14.9836 3.5561 14.5344 3.55567 14.0808V5.12636H18.3557V14.0808Z" fill="#0B5C85"/>
<path d="M9.34257 8.3868C9.34257 7.98144 9.01396 7.65283 8.6086 7.65283C8.20324 7.65283 7.87463 7.98144 7.87463 8.3868V13.6339C7.87463 14.0392 8.20324 14.3678 8.6086 14.3678C9.01396 14.3678 9.34257 14.0392 9.34257 13.6339V8.3868Z" fill="#0B5C85"/>
<path d="M14.0351 8.3868C14.0351 7.98144 13.7065 7.65283 13.3012 7.65283C12.8958 7.65283 12.5672 7.98144 12.5672 8.3868V13.6339C12.5672 14.0392 12.8958 14.3678 13.3012 14.3678C13.7065 14.3678 14.0351 14.0392 14.0351 13.6339V8.3868Z" fill="#0B5C85"/>
</g>
<defs>
<clipPath id="clip0_302_566">
<rect width="21.9098" height="19" fill="white"/>
</clipPath>
</defs>
</svg>
