<svg width="30" height="30" viewBox="0 0 30 30" fill="none" xmlns="http://www.w3.org/2000/svg">
<path d="M18.4141 29.6543C17.5711 29.6547 16.7342 29.5117 15.9391 29.2314C14.4619 28.7063 13.0353 28.0486 11.6768 27.2661C6.70633 24.3942 2.81089 19.9762 0.583914 14.6852C0.00694043 13.312 -0.146868 11.7978 0.142199 10.3366C0.431266 8.87545 1.15004 7.53386 2.20642 6.48378L3.06322 5.64216C3.32509 5.38014 3.63602 5.17229 3.97825 5.03048C4.32047 4.88866 4.68728 4.81567 5.05773 4.81567C5.42817 4.81567 5.79499 4.88866 6.13721 5.03048C6.47944 5.17229 6.79037 5.38014 7.05224 5.64216L10.0586 8.64205C10.3207 8.90392 10.5285 9.21485 10.6703 9.55708C10.8121 9.8993 10.8851 10.2661 10.8851 10.6366C10.8851 11.007 10.8121 11.3738 10.6703 11.716C10.5285 12.0583 10.3207 12.3692 10.0586 12.6311L9.92199 12.7677C9.59908 13.0871 9.40004 13.5108 9.36032 13.9633C9.3206 14.4157 9.44277 14.8676 9.70507 15.2384C11.1008 17.2039 12.8697 18.8755 14.911 20.1579C15.2791 20.3921 15.716 20.494 16.1497 20.4467C16.5834 20.3993 16.9881 20.2057 17.297 19.8976C17.5589 19.6356 17.8698 19.4278 18.212 19.2859C18.5543 19.1441 18.9211 19.0711 19.2915 19.0711C19.662 19.0711 20.0288 19.1441 20.371 19.2859C20.7132 19.4278 21.0241 19.6356 21.286 19.8976L24.2946 22.904C24.5576 23.166 24.7663 23.4774 24.9086 23.8202C25.051 24.163 25.1243 24.5306 25.1243 24.9018C25.1243 25.273 25.051 25.6406 24.9086 25.9834C24.7663 26.3262 24.5576 26.6376 24.2946 26.8996L23.7328 27.4614C22.319 28.866 20.407 29.6543 18.4141 29.6543V29.6543ZM5.05664 6.76143C4.94267 6.76134 4.82979 6.7837 4.72446 6.82725C4.61914 6.87079 4.52342 6.93467 4.44278 7.01521L3.58815 7.86985C2.80497 8.64692 2.27207 9.64044 2.05793 10.7227C1.84379 11.805 1.9582 12.9266 2.38645 13.9434C4.44635 18.8386 8.05111 22.9256 12.6507 25.5807C13.9071 26.304 15.2263 26.9124 16.592 27.3985C17.5802 27.7431 18.6454 27.8021 19.6656 27.5689C20.6858 27.3356 21.6196 26.8194 22.3597 26.0796L22.9194 25.52C23.0004 25.4394 23.0646 25.3435 23.1085 25.238C23.1523 25.1325 23.1749 25.0193 23.1749 24.9051C23.1749 24.7908 23.1523 24.6776 23.1085 24.5721C23.0646 24.4666 23.0004 24.3707 22.9194 24.2901L19.913 21.2794C19.8324 21.1987 19.7367 21.1347 19.6314 21.091C19.526 21.0474 19.4131 21.0249 19.2991 21.0249C19.1851 21.0249 19.0722 21.0474 18.9668 21.091C18.8615 21.1347 18.7658 21.1987 18.6852 21.2794C18.0638 21.9042 17.2472 22.2977 16.3712 22.3943C15.4953 22.491 14.6126 22.2851 13.8698 21.8108C11.6139 20.3923 9.65991 18.5429 8.11944 16.3685C7.58665 15.6211 7.33766 14.7084 7.41717 13.794C7.49668 12.8797 7.89948 12.0236 8.55327 11.3795L8.68992 11.2428C8.77092 11.1622 8.83519 11.0664 8.87905 10.9609C8.9229 10.8553 8.94548 10.7422 8.94548 10.6279C8.94548 10.5136 8.9229 10.4005 8.87905 10.2949C8.83519 10.1894 8.77092 10.0936 8.68992 10.0129L5.67051 7.01521C5.58987 6.93467 5.49415 6.87079 5.38882 6.82725C5.28349 6.7837 5.17062 6.76134 5.05664 6.76143V6.76143Z" fill="#1B94D3"/>
<path d="M29.0298 16.0538C29.1638 16.0527 29.2961 16.0241 29.4186 15.9697C29.5411 15.9154 29.6511 15.8364 29.7418 15.7378C29.8325 15.6391 29.902 15.5229 29.9459 15.3963C29.9899 15.2697 30.0073 15.1354 29.9972 15.0018C29.7162 11.1019 28.0342 7.43526 25.2614 4.67847C22.4887 1.92167 18.8124 0.260789 14.911 0.00230883C14.777 -0.00689871 14.6426 0.0114968 14.5161 0.0563555C14.3896 0.101214 14.2736 0.17158 14.1754 0.263093C14.0772 0.354605 13.9988 0.465315 13.9451 0.588361C13.8914 0.711406 13.8636 0.844166 13.8633 0.978414V0.978414C13.864 1.22892 13.9607 1.46964 14.1333 1.65115C14.3059 1.83267 14.5415 1.94122 14.7917 1.95452C18.2188 2.1833 21.4479 3.64252 23.8844 6.06348C26.3209 8.48445 27.8008 11.7042 28.0515 15.1298C28.0654 15.3797 28.1745 15.6148 28.3565 15.7867C28.5385 15.9586 28.7795 16.0542 29.0298 16.0538V16.0538Z" fill="#1B94D3"/>
<path d="M23.1212 16.0863C23.2584 16.0839 23.3936 16.0528 23.518 15.9949C23.6424 15.937 23.7533 15.8536 23.8435 15.7502C23.9336 15.6467 24.0011 15.5255 24.0414 15.3943C24.0818 15.2631 24.0942 15.125 24.0777 14.9887C23.812 12.6683 22.7656 10.507 21.1104 8.85917C19.4551 7.21138 17.2891 6.17488 14.9674 5.91961C14.8312 5.9054 14.6935 5.91982 14.5631 5.96197C14.4328 6.00413 14.3127 6.07306 14.2106 6.16437C14.1084 6.25567 14.0265 6.36732 13.9701 6.49215C13.9137 6.61698 13.8839 6.75222 13.8829 6.88921V6.88921C13.8834 7.12934 13.972 7.36092 14.132 7.54003C14.2919 7.71915 14.512 7.83335 14.7505 7.86098C16.6364 8.06317 18.3971 8.90161 19.7428 10.2382C21.0885 11.5748 21.9388 13.3299 22.1537 15.2143C22.1794 15.4532 22.2922 15.6743 22.4708 15.8352C22.6493 15.9961 22.8808 16.0855 23.1212 16.0863V16.0863Z" fill="#1B94D3"/>
</svg>
