<svg width="18" height="20" viewBox="0 0 18 20" fill="none" xmlns="http://www.w3.org/2000/svg">
<g clip-path="url(#clip0_302_614)">
<path d="M16.4102 17.8988H1.34154C0.76132 17.8988 0.290955 18.3692 0.290955 18.9494C0.290955 19.5296 0.76132 20 1.34154 20H16.4102C16.9905 20 17.4608 19.5296 17.4608 18.9494C17.4608 18.3692 16.9905 17.8988 16.4102 17.8988Z" fill="#B87A0C"/>
<path d="M16.053 2.2935L14.5305 0.772569C14.035 0.278084 13.3637 0.000366211 12.6637 0.000366211C11.9637 0.000366211 11.2923 0.278084 10.7969 0.772569L0.42026 11.1524L2.44387e-05 15.3548C-0.0184841 15.5414 0.00230677 15.7299 0.0610579 15.908C0.119809 16.0861 0.215218 16.25 0.341139 16.389C0.467061 16.528 0.620703 16.6391 0.792171 16.7151C0.963639 16.7912 1.14913 16.8304 1.3367 16.8304C1.38138 16.8328 1.42617 16.8328 1.47085 16.8304L5.67321 16.4167L16.053 6.02875C16.5476 5.53303 16.8254 4.86138 16.8254 4.16113C16.8254 3.46088 16.5476 2.78922 16.053 2.2935V2.2935ZM5.01053 15.0073L1.46762 15.3548L1.81674 11.7989L10.1148 3.51057L13.315 6.70921L5.01053 15.0073ZM15.0315 4.99917L14.3511 5.68125L11.1524 2.48261L11.8329 1.80053C12.0556 1.57846 12.3573 1.45375 12.6718 1.45375C12.9863 1.45375 13.2879 1.57846 13.5106 1.80053L15.0315 3.32308C15.2535 3.5455 15.3782 3.84689 15.3782 4.16113C15.3782 4.47536 15.2535 4.77676 15.0315 4.99917V4.99917Z" fill="#B87A0C"/>
</g>
<defs>
<clipPath id="clip0_302_614">
<rect width="17.4608" height="20" fill="white"/>
</clipPath>
</defs>
</svg>
