<svg width="30" height="30" viewBox="0 0 30 30" fill="none" xmlns="http://www.w3.org/2000/svg">
<path fill-rule="evenodd" clip-rule="evenodd" d="M12.8331 2.76309C13.275 3.14978 13.3198 3.82152 12.9331 4.26345C12.6733 4.56031 12.4095 4.83889 12.1471 5.11597C11.1733 6.14429 10.219 7.15199 9.56426 8.99714C9.42149 9.39951 9.37326 10.0859 9.41373 11.1089C9.43759 11.712 9.48583 12.3423 9.53779 13.0213C9.57325 13.4847 9.61045 13.9708 9.64283 14.4864C9.79299 16.8779 9.83407 19.763 8.61709 21.9362C7.4199 24.074 5.44506 25.941 4.42112 26.909C4.37712 26.9506 4.33488 26.9905 4.29453 27.0288C3.86823 27.4326 3.19525 27.4144 2.79139 26.9881C2.38753 26.5619 2.40571 25.8889 2.83201 25.485C2.85917 25.4593 2.88688 25.4331 2.91512 25.4063C3.95903 24.418 5.72766 22.7436 6.76167 20.8971C7.63314 19.3409 7.67422 17.0684 7.52047 14.6196C7.49242 14.1728 7.45731 13.7108 7.42248 13.2525C7.36775 12.5324 7.31372 11.8215 7.28886 11.193C7.2485 10.1728 7.26652 9.11353 7.56016 8.28601C8.38025 5.97483 9.70024 4.59156 10.7016 3.54221C10.9322 3.30056 11.1459 3.07661 11.3327 2.86312C11.7194 2.42118 12.3911 2.3764 12.8331 2.76309Z" fill="#B87A0C"/>
<path fill-rule="evenodd" clip-rule="evenodd" d="M19.9849 2.76309C20.4268 3.14978 20.4716 3.82152 20.0849 4.26345C19.8252 4.56031 19.5614 4.83889 19.299 5.11597C18.3251 6.14429 17.3709 7.15199 16.7161 8.99714C16.5733 9.39951 16.5251 10.0859 16.5656 11.1089C16.5894 11.712 16.6377 12.3423 16.6896 13.0213C16.7251 13.4847 16.7623 13.9708 16.7947 14.4864C16.9448 16.8779 16.9859 19.763 15.7689 21.9362C14.5718 24.074 12.5969 25.941 11.573 26.909C11.529 26.9506 11.4867 26.9905 11.4464 27.0288C11.0201 27.4326 10.3471 27.4144 9.94324 26.9881C9.53938 26.5619 9.55757 25.8889 9.98387 25.485C10.011 25.4593 10.0387 25.4331 10.067 25.4063C11.1109 24.418 12.8795 22.7436 13.9135 20.8971C14.785 19.3409 14.8261 17.0684 14.6723 14.6196C14.6443 14.1728 14.6092 13.7108 14.5743 13.2525C14.5196 12.5324 14.4656 11.8215 14.4407 11.193C14.4004 10.1728 14.4184 9.11353 14.712 8.28601C15.5321 5.97483 16.8521 4.59156 17.8534 3.54221C18.084 3.30056 18.2977 3.07661 18.4846 2.86312C18.8712 2.42118 19.543 2.3764 19.9849 2.76309Z" fill="#B87A0C"/>
<path fill-rule="evenodd" clip-rule="evenodd" d="M27.1369 2.76309C27.5788 3.14978 27.6236 3.82152 27.2369 4.26345C26.9772 4.56031 26.7133 4.83889 26.4509 5.11597C25.4771 6.14429 24.5228 7.15199 23.8681 8.99714C23.7253 9.39951 23.6771 10.0859 23.7176 11.1089C23.7414 11.712 23.7897 12.3423 23.8416 13.0213C23.8771 13.4847 23.9143 13.9708 23.9467 14.4864C24.0968 16.8779 24.1379 19.763 22.9209 21.9362C21.7237 24.074 19.7489 25.941 18.725 26.909C18.681 26.9506 18.6387 26.9905 18.5984 27.0288C18.1721 27.4326 17.4991 27.4144 17.0952 26.9881C16.6914 26.5619 16.7095 25.8889 17.1358 25.485C17.163 25.4593 17.1907 25.4331 17.219 25.4063C18.2629 24.418 20.0315 22.7436 21.0655 20.8971C21.937 19.3409 21.9781 17.0684 21.8243 14.6196C21.7963 14.1728 21.7611 13.7108 21.7263 13.2525C21.6716 12.5324 21.6176 11.8215 21.5927 11.193C21.5523 10.1728 21.5704 9.11353 21.864 8.28601C22.6841 5.97483 24.0041 4.59156 25.0054 3.54221C25.236 3.30056 25.4497 3.07661 25.6365 2.86312C26.0232 2.42118 26.695 2.3764 27.1369 2.76309Z" fill="#B87A0C"/>
</svg>
