<svg width="18" height="18" viewBox="0 0 18 18" fill="none" xmlns="http://www.w3.org/2000/svg">
<path d="M5.94061 8.72314H4.44739C4.29171 8.72436 4.14283 8.78713 4.03329 8.89775C3.92374 9.00838 3.86242 9.15786 3.86273 9.31354C3.86273 9.46982 3.92481 9.6197 4.03532 9.7302C4.14583 9.84071 4.2957 9.90279 4.45198 9.90279H5.94521C6.10069 9.90158 6.24939 9.83896 6.3589 9.72859C6.46841 9.61821 6.52986 9.46903 6.52986 9.31354V9.31354C6.52986 9.23616 6.51462 9.15954 6.48501 9.08805C6.45539 9.01656 6.41199 8.9516 6.35727 8.89688C6.30256 8.84216 6.2376 8.79876 6.16611 8.76915C6.09462 8.73953 6.01799 8.72429 5.94061 8.72429V8.72314Z" fill="#1B94D3"/>
<path d="M9.73229 8.72314H8.23907C8.08339 8.72436 7.93452 8.78713 7.82497 8.89775C7.71543 9.00838 7.65411 9.15786 7.65442 9.31354V9.31354C7.65442 9.46982 7.7165 9.6197 7.82701 9.7302C7.93751 9.84071 8.08739 9.90279 8.24367 9.90279H9.73689C9.89246 9.90188 10.0413 9.83936 10.1509 9.72892C10.2605 9.61848 10.3218 9.46912 10.3215 9.31354V9.31354C10.3215 9.23616 10.3063 9.15954 10.2767 9.08805C10.2471 9.01656 10.2037 8.9516 10.149 8.89688C10.0942 8.84216 10.0293 8.79876 9.95779 8.76915C9.8863 8.73953 9.80968 8.72429 9.73229 8.72429V8.72314Z" fill="#1B94D3"/>
<path d="M13.525 8.72314H12.0318C11.8761 8.72436 11.7272 8.78713 11.6177 8.89775C11.5082 9.00838 11.4468 9.15786 11.4471 9.31354V9.31354C11.447 9.39097 11.4621 9.46766 11.4917 9.53922C11.5212 9.61078 11.5646 9.6758 11.6194 9.73054C11.6741 9.78529 11.7392 9.82869 11.8107 9.85825C11.8823 9.88781 11.959 9.90294 12.0364 9.90279H13.5296C13.6851 9.90158 13.8338 9.83896 13.9433 9.72859C14.0528 9.61821 14.1143 9.46903 14.1143 9.31354V9.31354C14.1143 9.23616 14.099 9.15954 14.0694 9.08805C14.0398 9.01656 13.9964 8.9516 13.9417 8.89688C13.887 8.84216 13.822 8.79876 13.7505 8.76915C13.679 8.73953 13.6024 8.72429 13.525 8.72429V8.72314Z" fill="#1B94D3"/>
<path d="M5.96358 10.885H4.47035C4.31407 10.885 4.1642 10.9471 4.05369 11.0576C3.94318 11.1681 3.8811 11.318 3.8811 11.4743V11.4743C3.8811 11.6305 3.94318 11.7804 4.05369 11.8909C4.1642 12.0014 4.31407 12.0635 4.47035 12.0635H5.96358C6.04105 12.0637 6.1178 12.0485 6.18942 12.019C6.26105 11.9894 6.32614 11.9461 6.38098 11.8913C6.43582 11.8366 6.47933 11.7716 6.50901 11.7C6.53869 11.6285 6.55397 11.5517 6.55397 11.4743V11.4743C6.55413 11.3968 6.53899 11.3201 6.50943 11.2486C6.47987 11.177 6.43647 11.112 6.38172 11.0573C6.32698 11.0025 6.26196 10.9591 6.1904 10.9296C6.11884 10.9 6.04215 10.8849 5.96472 10.885H5.96358Z" fill="#1B94D3"/>
<path d="M9.7552 10.885H8.26198C8.18455 10.8849 8.10786 10.9 8.0363 10.9296C7.96475 10.9591 7.89973 11.0025 7.84498 11.0573C7.79023 11.112 7.74684 11.177 7.71728 11.2486C7.68772 11.3201 7.67258 11.3968 7.67273 11.4743C7.67273 11.6305 7.73481 11.7804 7.84532 11.8909C7.95582 12.0014 8.1057 12.0635 8.26198 12.0635H9.7552C9.91139 12.0632 10.0611 12.001 10.1715 11.8906C10.282 11.7801 10.3441 11.6304 10.3444 11.4743V11.4743C10.3444 11.3968 10.3292 11.3201 10.2995 11.2485C10.2698 11.1769 10.2263 11.1119 10.1715 11.0572C10.1166 11.0025 10.0515 10.9591 9.9799 10.9295C9.90828 10.9 9.83153 10.8849 9.75405 10.885H9.7552Z" fill="#1B94D3"/>
<path d="M13.548 10.885H12.0548C11.8985 10.885 11.7486 10.9471 11.6381 11.0576C11.5276 11.1681 11.4655 11.318 11.4655 11.4743V11.4743C11.4655 11.6305 11.5276 11.7804 11.6381 11.8909C11.7486 12.0014 11.8985 12.0635 12.0548 12.0635H13.548C13.7039 12.0629 13.8532 12.0005 13.9632 11.8901C14.0732 11.7797 14.1349 11.6301 14.1349 11.4743V11.4743C14.1349 11.318 14.0729 11.1681 13.9624 11.0576C13.8519 10.9471 13.702 10.885 13.5457 10.885H13.548Z" fill="#1B94D3"/>
<path d="M5.98654 13.0454H4.49332C4.33824 13.0475 4.19025 13.1107 4.08144 13.2212C3.97264 13.3317 3.91179 13.4807 3.91211 13.6358C3.91211 13.7921 3.97419 13.942 4.0847 14.0525C4.1952 14.163 4.34508 14.2251 4.50136 14.2251H5.99458C6.15097 14.2251 6.30096 14.163 6.41165 14.0525C6.52234 13.9421 6.58468 13.7922 6.58498 13.6358C6.58498 13.4792 6.52278 13.3291 6.41206 13.2183C6.30134 13.1076 6.15117 13.0454 5.99458 13.0454H5.98654Z" fill="#1B94D3"/>
<path d="M9.7793 13.0454H8.28608C8.1307 13.0472 7.98229 13.1102 7.87306 13.2208C7.76382 13.3313 7.70257 13.4804 7.70258 13.6358V13.6358C7.70258 13.7921 7.76466 13.942 7.87516 14.0525C7.98567 14.163 8.13555 14.2251 8.29182 14.2251H9.78505C9.94133 14.2251 10.0912 14.163 10.2017 14.0525C10.3122 13.942 10.3743 13.7921 10.3743 13.6358C10.3743 13.4794 10.3123 13.3294 10.2018 13.2187C10.0913 13.1081 9.94143 13.0457 9.78505 13.0454H9.7793Z" fill="#1B94D3"/>
<path d="M13.6204 2.95245H13.4756V2.19205C13.4756 2.00927 13.403 1.83397 13.2738 1.70473C13.1445 1.57548 12.9693 1.50287 12.7865 1.50287V1.50287C12.6037 1.50287 12.4284 1.57548 12.2991 1.70473C12.1699 1.83397 12.0973 2.00927 12.0973 2.19205V2.95015H5.90845V2.19205C5.90845 2.00851 5.83554 1.83248 5.70576 1.7027C5.57597 1.57291 5.39995 1.5 5.2164 1.5C5.03286 1.5 4.85683 1.57291 4.72705 1.7027C4.59726 1.83248 4.52435 2.00851 4.52435 2.19205V2.95015H4.37962C4.00122 2.9503 3.62655 3.025 3.27702 3.16998C2.92749 3.31497 2.60995 3.52739 2.34254 3.79513C2.07513 4.06286 1.86308 4.38065 1.71852 4.73035C1.57395 5.08006 1.4997 5.45481 1.5 5.83322V13.8874C1.5 14.6512 1.80339 15.3836 2.34342 15.9236C2.88346 16.4637 3.6159 16.7671 4.37962 16.7671H13.6204C14.3841 16.7671 15.1165 16.4637 15.6566 15.9236C16.1966 15.3836 16.5 14.6512 16.5 13.8874V5.83322C16.5 5.06939 16.1966 4.33683 15.6566 3.79661C15.1166 3.25639 14.3842 2.95275 13.6204 2.95245V2.95245ZM15.4662 13.8874C15.4656 14.3768 15.271 14.8459 14.9249 15.192C14.5789 15.538 14.1097 15.7327 13.6204 15.7333H4.37962C3.89026 15.7327 3.42111 15.538 3.07508 15.192C2.72905 14.8459 2.53438 14.3768 2.53377 13.8874V7.46657H15.4662V13.8874ZM15.4662 6.4328H2.53377V5.83322C2.53438 5.34375 2.72901 4.87448 3.07501 4.52827C3.42101 4.18205 3.89015 3.98713 4.37962 3.98622H4.52435V4.44567C4.52435 4.62921 4.59726 4.80524 4.72705 4.93502C4.85683 5.06481 5.03286 5.13772 5.2164 5.13772C5.39995 5.13772 5.57597 5.06481 5.70576 4.93502C5.83554 4.80524 5.90845 4.62921 5.90845 4.44567V3.98622H12.0915V4.44567C12.0915 4.62845 12.1642 4.80375 12.2934 4.93299C12.4226 5.06224 12.5979 5.13485 12.7807 5.13485V5.13485C12.9635 5.13485 13.1388 5.06224 13.268 4.93299C13.3973 4.80375 13.4699 4.62845 13.4699 4.44567V3.98622H13.6146C13.8575 3.98591 14.098 4.03345 14.3225 4.12611C14.547 4.21876 14.751 4.35473 14.923 4.52624C15.0949 4.69775 15.2314 4.90144 15.3246 5.1257C15.4178 5.34995 15.4659 5.59036 15.4662 5.83322V6.4328Z" fill="#1B94D3"/>
</svg>
