<svg width="18" height="18" viewBox="0 0 18 18" fill="none" xmlns="http://www.w3.org/2000/svg">
<path d="M12.4938 16.3294C11.9905 16.3297 11.4908 16.2443 11.0162 16.0769C10.1342 15.7635 9.28249 15.3708 8.47141 14.9036C5.50389 13.189 3.17819 10.5513 1.84861 7.39243C1.50414 6.57258 1.41232 5.66855 1.5849 4.79618C1.75748 3.92381 2.18661 3.12284 2.8173 2.49591L3.32884 1.99344C3.48518 1.837 3.67082 1.71291 3.87513 1.62824C4.07945 1.54358 4.29845 1.5 4.51962 1.5C4.74079 1.5 4.95979 1.54358 5.1641 1.62824C5.36842 1.71291 5.55406 1.837 5.7104 1.99344L7.50532 3.78447C7.66175 3.94081 7.78584 4.12645 7.87051 4.33076C7.95518 4.53508 7.99875 4.75408 7.99875 4.97525C7.99875 5.19642 7.95518 5.41542 7.87051 5.61973C7.78584 5.82405 7.66175 6.00969 7.50532 6.16603L7.42373 6.24762C7.23095 6.43832 7.11211 6.69126 7.0884 6.96139C7.06468 7.23151 7.13762 7.50129 7.29423 7.72266C8.1275 8.89615 9.1836 9.89417 10.4023 10.6598C10.6221 10.7996 10.8829 10.8604 11.1419 10.8322C11.4008 10.8039 11.6424 10.6883 11.8268 10.5044C11.9832 10.348 12.1688 10.2239 12.3731 10.1392C12.5775 10.0545 12.7965 10.011 13.0176 10.011C13.2388 10.011 13.4578 10.0545 13.6621 10.1392C13.8664 10.2239 14.0521 10.348 14.2084 10.5044L16.0046 12.2993C16.1616 12.4557 16.2862 12.6416 16.3712 12.8463C16.4562 13.051 16.5 13.2704 16.5 13.492C16.5 13.7137 16.4562 13.9331 16.3712 14.1378C16.2862 14.3425 16.1616 14.5283 16.0046 14.6848L15.6692 15.0202C14.8251 15.8588 13.6836 16.3294 12.4938 16.3294V16.3294ZM4.51897 2.66167C4.45093 2.66162 4.38354 2.67497 4.32065 2.70097C4.25777 2.72697 4.20062 2.7651 4.15248 2.81319L3.64224 3.32344C3.17465 3.78737 2.85649 4.38054 2.72865 5.0267C2.6008 5.67286 2.6691 6.34249 2.92479 6.94953C4.15461 9.87213 6.30676 12.3122 9.05288 13.8974C9.80299 14.3292 10.5905 14.6924 11.406 14.9826C11.9959 15.1884 12.6319 15.2236 13.241 15.0844C13.8501 14.9451 14.4075 14.6369 14.8494 14.1952L15.1836 13.8611C15.2319 13.813 15.2703 13.7558 15.2965 13.6928C15.3227 13.6298 15.3361 13.5622 15.3361 13.494C15.3361 13.4257 15.3227 13.3582 15.2965 13.2952C15.2703 13.2322 15.2319 13.175 15.1836 13.1268L13.3887 11.3293C13.3405 11.2812 13.2834 11.243 13.2205 11.2169C13.1576 11.1908 13.0902 11.1774 13.0222 11.1774C12.9541 11.1774 12.8867 11.1908 12.8238 11.2169C12.7609 11.243 12.7038 11.2812 12.6557 11.3293C12.2846 11.7024 11.7971 11.9373 11.2741 11.995C10.7511 12.0527 10.2242 11.9298 9.78069 11.6466C8.43388 10.7997 7.26726 9.69556 6.34756 8.39737C6.02946 7.9512 5.88081 7.40626 5.92828 6.86037C5.97575 6.31447 6.21623 5.80337 6.60656 5.4188L6.68815 5.33721C6.73651 5.28908 6.77488 5.23187 6.80107 5.16886C6.82725 5.10586 6.84073 5.0383 6.84073 4.97007C6.84073 4.90184 6.82725 4.83428 6.80107 4.77128C6.77488 4.70827 6.73651 4.65106 6.68815 4.60293L4.88547 2.81319C4.83732 2.7651 4.78018 2.72697 4.71729 2.70097C4.65441 2.67497 4.58702 2.66162 4.51897 2.66167V2.66167Z" fill="#1B94D3"/>
</svg>
