<svg width="25" height="25" viewBox="0 0 25 25" fill="none" xmlns="http://www.w3.org/2000/svg">
<circle cx="12.5" cy="12.5" r="12" stroke="#787A87"/>
<path fill-rule="evenodd" clip-rule="evenodd" d="M7.96875 12.8125C7.96875 12.381 8.31853 12.0312 8.75 12.0312H16.875C17.3065 12.0312 17.6562 12.381 17.6562 12.8125C17.6562 13.244 17.3065 13.5938 16.875 13.5938H8.75C8.31853 13.5938 7.96875 13.244 7.96875 12.8125Z" fill="#787A87"/>
<path fill-rule="evenodd" clip-rule="evenodd" d="M12.8125 17.6562C12.381 17.6562 12.0312 17.3065 12.0312 16.875V8.75C12.0312 8.31853 12.381 7.96875 12.8125 7.96875C13.244 7.96875 13.5938 8.31853 13.5938 8.75V16.875C13.5938 17.3065 13.244 17.6562 12.8125 17.6562Z" fill="#787A87"/>
</svg>
