<svg width="30" height="30" viewBox="0 0 30 30" fill="none" xmlns="http://www.w3.org/2000/svg">
<path d="M24.1681 18.972H5.83187C4.28459 18.9703 2.80124 18.3545 1.70773 17.2598C0.614226 16.1651 -9.02234e-07 14.6811 0 13.1338L0 8.83187C0.00166886 7.28568 0.616633 5.80329 1.70996 4.70996C2.80329 3.61663 4.28568 3.00167 5.83187 3H24.1681C25.7143 3.00167 27.1967 3.61663 28.29 4.70996C29.3834 5.80329 29.9983 7.28568 30 8.83187V13.1338C30 14.6811 29.3858 16.1651 28.2923 17.2598C27.1988 18.3545 25.7154 18.9703 24.1681 18.972V18.972ZM5.83187 4.89142C4.78714 4.89253 3.78552 5.30804 3.04678 6.04678C2.30804 6.78552 1.89253 7.78714 1.89142 8.83187V13.1338C1.89086 14.1796 2.30563 15.1829 3.04455 15.923C3.78347 16.6631 4.78605 17.0794 5.83187 17.0806H24.1681C25.2129 17.0794 26.2145 16.6639 26.9532 15.9252C27.692 15.1865 28.1075 14.1848 28.1086 13.1401V8.83187C28.1075 7.78714 27.692 6.78552 26.9532 6.04678C26.2145 5.30804 25.2129 4.89253 24.1681 4.89142H5.83187Z" fill="#B87A0C"/>
<path d="M4.05403 18.7191L2.8183 17.29L3.77031 16.4683C4.50123 15.838 5.43423 15.4912 6.39939 15.4911H23.7353C24.7005 15.4908 25.6336 15.8377 26.3644 16.4683L27.1798 17.1724L25.9441 18.6035L25.1286 17.8995C24.7409 17.5662 24.2466 17.3828 23.7353 17.3825H6.39939C5.88775 17.383 5.3933 17.5672 5.00604 17.9016L4.05403 18.7191Z" fill="#B87A0C"/>
<path d="M18.4142 8.22826H11.5841C11.3612 8.22826 11.1473 8.13969 10.9897 7.98204C10.832 7.82439 10.7435 7.61058 10.7435 7.38763C10.7435 7.16468 10.832 6.95086 10.9897 6.79321C11.1473 6.63556 11.3612 6.547 11.5841 6.547H18.4142C18.6372 6.547 18.851 6.63556 19.0086 6.79321C19.1663 6.95086 19.2549 7.16468 19.2549 7.38763C19.2549 7.61058 19.1663 7.82439 19.0086 7.98204C18.851 8.13969 18.6372 8.22826 18.4142 8.22826Z" fill="#B87A0C"/>
<path d="M11.2306 27.4605C11.0356 27.4605 10.8485 27.383 10.7105 27.2451C10.5726 27.1072 10.4951 26.9201 10.4951 26.725C10.4921 26.2318 10.6787 25.7563 11.0163 25.3968C11.1697 25.2098 11.2033 25.1656 11.2033 25.0038C11.2033 24.842 11.1697 24.7936 11.0163 24.6108C10.6811 24.2497 10.4949 23.7753 10.4949 23.2826C10.4949 22.7899 10.6811 22.3155 11.0163 21.9544C11.1697 21.7674 11.2033 21.7232 11.2033 21.5614C11.2033 21.3663 11.2808 21.1792 11.4188 21.0413C11.5567 20.9034 11.7438 20.8259 11.9389 20.8259C12.134 20.8259 12.3211 20.9034 12.459 21.0413C12.5969 21.1792 12.6744 21.3663 12.6744 21.5614C12.6769 22.0549 12.4895 22.5304 12.1511 22.8896C11.9977 23.0767 11.9662 23.1208 11.9662 23.2826C11.9662 23.4444 11.9977 23.4928 12.1511 23.6756C12.4872 24.0362 12.6741 24.5109 12.6741 25.0038C12.6741 25.4967 12.4872 25.9714 12.1511 26.332C11.9977 26.519 11.9662 26.5632 11.9662 26.725C11.9662 26.9201 11.8887 27.1072 11.7508 27.2451C11.6128 27.383 11.4257 27.4605 11.2306 27.4605V27.4605Z" fill="#B87A0C"/>
<path d="M14.6878 27.4605C14.4927 27.4605 14.3056 27.383 14.1677 27.2451C14.0297 27.1072 13.9522 26.9201 13.9522 26.725C13.9503 26.232 14.1367 25.7569 14.4734 25.3968C14.6289 25.2098 14.6605 25.1656 14.6605 25.0038C14.6605 24.842 14.6289 24.7936 14.4734 24.6108C14.1378 24.2499 13.9512 23.7754 13.9512 23.2826C13.9512 22.7898 14.1378 22.3153 14.4734 21.9544C14.6268 21.7674 14.6584 21.7232 14.6584 21.5614C14.6584 21.3663 14.7358 21.1792 14.8738 21.0413C15.0117 20.9034 15.1988 20.8259 15.3939 20.8259C15.589 20.8259 15.7761 20.9034 15.914 21.0413C16.052 21.1792 16.1295 21.3663 16.1295 21.5614C16.1325 22.0546 15.9459 22.5301 15.6083 22.8896C15.4548 23.0767 15.4212 23.1208 15.4212 23.2826C15.4212 23.4444 15.4548 23.4928 15.6083 23.6756C15.9434 24.0367 16.1297 24.5111 16.1297 25.0038C16.1297 25.4965 15.9434 25.9709 15.6083 26.332C15.4548 26.519 15.4212 26.5632 15.4212 26.725C15.4212 26.9197 15.344 27.1065 15.2065 27.2444C15.069 27.3822 14.8825 27.46 14.6878 27.4605V27.4605Z" fill="#B87A0C"/>
<path d="M18.1473 27.4605C17.9522 27.4605 17.7651 27.383 17.6272 27.2451C17.4892 27.1072 17.4117 26.9201 17.4117 26.725C17.4087 26.2318 17.5953 25.7563 17.9329 25.3968C18.0863 25.2098 18.12 25.1656 18.12 25.0038C18.12 24.842 18.0863 24.7936 17.9329 24.6108C17.5978 24.2497 17.4115 23.7753 17.4115 23.2826C17.4115 22.7899 17.5978 22.3155 17.9329 21.9544C18.0863 21.7674 18.12 21.7232 18.12 21.5614C18.12 21.3663 18.1974 21.1792 18.3354 21.0413C18.4733 20.9034 18.6604 20.8259 18.8555 20.8259C19.0506 20.8259 19.2377 20.9034 19.3756 21.0413C19.5136 21.1792 19.5911 21.3663 19.5911 21.5614C19.593 22.0544 19.4066 22.5295 19.0699 22.8896C18.9164 23.0767 18.8828 23.1208 18.8828 23.2826C18.8828 23.4444 18.9164 23.4928 19.0699 23.6756C19.405 24.0367 19.5913 24.5111 19.5913 25.0038C19.5913 25.4965 19.405 25.9709 19.0699 26.332C18.9164 26.519 18.8828 26.5632 18.8828 26.725C18.8828 26.9201 18.8053 27.1072 18.6674 27.2451C18.5294 27.383 18.3424 27.4605 18.1473 27.4605V27.4605Z" fill="#B87A0C"/>
</svg>
