<svg width="20" height="20" viewBox="0 0 20 20" fill="none" xmlns="http://www.w3.org/2000/svg">
<g clip-path="url(#clip0_302_605)">
<path d="M19.9571 10.1733C19.9249 10.0281 19.8786 9.88652 19.8188 9.75044C19.5597 9.16547 19.1098 8.93976 18.6091 8.85233C18.6091 8.83484 18.6091 8.81577 18.6091 8.79669C18.4851 3.92624 14.6717 0 10.0016 0C5.33142 0 1.51644 3.92624 1.39246 8.80305C1.39246 8.82213 1.39246 8.8412 1.39246 8.85869C0.891741 8.94611 0.438713 9.1766 0.182792 9.7568C0.12338 9.89084 0.0770668 10.0303 0.044499 10.1733C-0.114458 10.8806 0.173254 12.0935 0.929891 12.8183C1.3205 13.1955 1.83285 13.4209 2.37481 13.4541C3.78794 16.5999 6.5983 19.1432 10.0048 19.1432C13.4112 19.1432 16.2168 16.5999 17.6347 13.4541C18.1767 13.4209 18.689 13.1955 19.0796 12.8183C19.8283 12.0998 20.1208 10.8886 19.9571 10.1733ZM10.0016 0.953743C14.1472 0.953743 17.5314 4.4508 17.6538 8.80305H16.0229C15.8507 8.8035 15.6833 8.74654 15.5471 8.64117C15.4109 8.5358 15.3138 8.38805 15.271 8.22127C14.9708 7.05162 14.2899 6.01508 13.3358 5.27493C12.3816 4.53478 11.2084 4.13306 10.0008 4.13306C8.79321 4.13306 7.61994 4.53478 6.66579 5.27493C5.71164 6.01508 5.03081 7.05162 4.73056 8.22127C4.68708 8.38857 4.58908 8.5366 4.45205 8.64197C4.31502 8.74733 4.14677 8.80401 3.97392 8.80305H2.34779C2.47019 4.4508 5.85597 0.953743 10.0016 0.953743ZM18.412 12.1348C18.3059 12.2375 18.1834 12.3218 18.0496 12.3844C17.7266 12.5281 17.3637 12.5557 17.0227 12.4622C16.9146 12.75 16.7938 13.0345 16.6603 13.3127C16.3172 14.0357 15.8904 14.7159 15.3886 15.3394C13.8929 17.1849 11.9806 18.2006 10.0079 18.2006C8.03528 18.2006 6.12143 17.1849 4.62565 15.3394C4.12388 14.7159 3.69707 14.0357 3.35399 13.3127C3.22046 13.0345 3.09966 12.75 2.99157 12.4622C2.65055 12.5557 2.28772 12.5281 1.9647 12.3844C1.82639 12.3231 1.69953 12.2387 1.58956 12.1348C1.0809 11.6484 0.885383 10.7789 0.974399 10.3863C1.04752 10.0684 1.12382 9.90939 1.42266 9.82197C1.73262 9.7586 2.04925 9.73404 2.36527 9.74885H3.85629C4.694 9.72659 5.1661 9.53584 5.47289 9.00811C5.54165 8.88236 5.59045 8.74668 5.61754 8.60595C5.83662 7.60691 6.39052 6.71273 7.18744 6.07164C7.98435 5.43055 8.97642 5.08103 9.99919 5.08103C11.022 5.08103 12.014 5.43055 12.811 6.07164C13.6079 6.71273 14.1618 7.60691 14.3808 8.60595C14.4161 8.78379 14.4817 8.95425 14.5748 9.10984C14.88 9.58671 15.3696 9.73454 16.1643 9.75521H17.6442C17.9603 9.74052 18.2769 9.76508 18.5869 9.82833C18.8857 9.91098 18.962 10.0763 19.0351 10.3926C19.1162 10.7789 18.9159 11.6484 18.412 12.1348Z" fill="#B87A0C"/>
</g>
<defs>
<clipPath id="clip0_302_605">
<rect width="20" height="19.1543" fill="white"/>
</clipPath>
</defs>
</svg>
