<svg width="25" height="25" viewBox="0 0 25 25" fill="none" xmlns="http://www.w3.org/2000/svg">
<g clip-path="url(#clip0_242_2292)">
<path d="M12.499 1.72295C14.6309 1.72257 16.715 2.35442 18.4877 3.53857C20.2604 4.72273 21.6422 6.40601 22.4582 8.37551C23.2742 10.345 23.4878 12.5123 23.072 14.6032C22.6561 16.6941 21.6296 18.6147 20.1222 20.1222C18.6147 21.6296 16.6941 22.6562 14.6032 23.072C12.5123 23.4878 10.345 23.2742 8.3755 22.4582C6.406 21.6422 4.72273 20.2604 3.53857 18.4877C2.35441 16.715 1.72257 14.6309 1.72295 12.499C1.72599 9.64198 2.8623 6.9028 4.88255 4.88255C6.9028 2.8623 9.64197 1.72599 12.499 1.72295ZM12.499 1.4662e-07C10.0265 1.75613e-07 7.60949 0.733217 5.55368 2.10692C3.49787 3.48063 1.89559 5.43313 0.949478 7.71749C0.003367 10.0019 -0.244082 12.5155 0.238425 14.9405C0.720933 17.3655 1.91172 19.5929 3.6602 21.3411C5.40869 23.0894 7.63632 24.2798 10.0614 24.7619C12.4865 25.2441 15.0001 24.9963 17.2843 24.0498C19.5685 23.1033 21.5207 21.5007 22.8941 19.4447C24.2675 17.3887 25.0004 14.9716 25 12.499C25 10.8575 24.6766 9.232 24.0484 7.71542C23.4201 6.19885 22.4993 4.82088 21.3384 3.66021C20.1776 2.49954 18.7995 1.57891 17.2828 0.950884C15.7661 0.322861 14.1406 -0.000251279 12.499 1.4662e-07Z" fill="#01B7F5"/>
<path d="M11.1743 8.71234V6.70032H13.8238V8.71234H11.1743ZM11.1743 18.3073V9.95478H13.8238V18.3073H11.1743Z" fill="#01B7F5"/>
</g>
<defs>
<clipPath id="clip0_242_2292">
<rect width="25" height="25" fill="white"/>
</clipPath>
</defs>
</svg>
