<svg width="30" height="30" viewBox="0 0 30 30" fill="none" xmlns="http://www.w3.org/2000/svg">
<path fill-rule="evenodd" clip-rule="evenodd" d="M26.8284 0.194911C27.2447 0.0095694 27.7074 -0.0452801 28.1555 0.0376145C28.6042 0.120604 29.017 0.337746 29.3396 0.660353C29.6623 0.982962 29.8794 1.39585 29.9624 1.84448C30.0452 2.2924 29.9905 2.75491 29.8053 3.17108C29.805 3.17172 29.8047 3.17237 29.8045 3.17301L18.5141 28.6468C18.5137 28.6477 18.5133 28.6486 18.5129 28.6495C18.3155 29.0974 17.9778 29.4689 17.5506 29.7079C17.1226 29.9474 16.6282 30.0408 16.1423 29.9739C15.6564 29.907 15.2056 29.6835 14.8582 29.3373C14.5113 28.9915 14.2864 28.5423 14.2175 28.0574C14.2174 28.0567 14.2173 28.056 14.2172 28.0553L12.6726 17.3223L1.93966 15.7777C1.93899 15.7776 1.93831 15.7775 1.93764 15.7774C1.45275 15.7086 1.00344 15.4837 0.657684 15.1368C0.31145 14.7894 0.0879443 14.3386 0.0210627 13.8527C-0.0458187 13.3668 0.0475715 12.8723 0.287072 12.4443C0.526232 12.0169 0.89806 11.679 1.3463 11.4817C1.34694 11.4814 1.34757 11.4812 1.34821 11.4809L26.827 0.195547C26.8275 0.195335 26.8279 0.195123 26.8284 0.194911ZM27.2883 1.22966L27.7466 2.26457C27.7476 2.26445 27.7486 2.26418 27.7495 2.26378L27.2883 1.22966ZM27.7256 2.27436L2.29069 13.5403L14.6728 15.3222L16.4547 27.7043L27.7256 2.27436Z" fill="#1B94D3"/>
</svg>
