<svg width="30" height="30" viewBox="0 0 30 30" fill="none" xmlns="http://www.w3.org/2000/svg">
<g clip-path="url(#clip0_302_361)">
<path d="M22.9708 0H7.06601C5.72242 0 4.43386 0.533739 3.4838 1.4838C2.53374 2.43386 2 3.72242 2 5.06601L2 24.9364C2 25.6015 2.13105 26.2602 2.38567 26.8747C2.64029 27.4892 3.01349 28.0475 3.48394 28.5177C3.9544 28.988 4.51289 29.3609 5.12751 29.6152C5.74214 29.8696 6.40085 30.0003 7.06601 30H22.9708C23.636 30.0003 24.2947 29.8696 24.9093 29.6152C25.524 29.3609 26.0824 28.988 26.5529 28.5177C27.0233 28.0475 27.3965 27.4892 27.6512 26.8747C27.9058 26.2602 28.0368 25.6015 28.0368 24.9364V5.06601C28.0368 3.72242 27.5031 2.43386 26.553 1.4838C25.603 0.533739 24.3144 0 22.9708 0V0ZM11.9304 1.89738H18.0969C18.3485 1.89738 18.5898 1.99733 18.7677 2.17525C18.9457 2.35316 19.0456 2.59447 19.0456 2.84607C19.0456 3.09768 18.9457 3.33899 18.7677 3.5169C18.5898 3.69482 18.3485 3.79477 18.0969 3.79477H11.9304C11.6788 3.79477 11.4375 3.69482 11.2596 3.5169C11.0817 3.33899 10.9817 3.09768 10.9817 2.84607C10.9817 2.59447 11.0817 2.35316 11.2596 2.17525C11.4375 1.99733 11.6788 1.89738 11.9304 1.89738ZM15.0137 28.5793C14.7205 28.5793 14.4339 28.4924 14.1901 28.3295C13.9464 28.1666 13.7564 27.9351 13.6442 27.6643C13.532 27.3934 13.5026 27.0954 13.5598 26.8078C13.617 26.5203 13.7582 26.2561 13.9655 26.0488C14.1728 25.8415 14.4369 25.7004 14.7245 25.6432C15.012 25.586 15.3101 25.6153 15.5809 25.7275C15.8518 25.8397 16.0833 26.0297 16.2462 26.2735C16.4091 26.5172 16.496 26.8038 16.496 27.097C16.496 27.4893 16.3405 27.8656 16.0635 28.1435C15.7866 28.4214 15.4107 28.5781 15.0184 28.5793H15.0137ZM25.39 24.1916H4.64448V5.96727H25.39V24.1916Z" fill="#4D7E98"/>
</g>
<defs>
<clipPath id="clip0_302_361">
<rect width="26.0368" height="30" fill="white" transform="translate(2)"/>
</clipPath>
</defs>
</svg>
