<svg width="16" height="15" viewBox="0 0 16 15" fill="none" xmlns="http://www.w3.org/2000/svg">
<path d="M8.00309 1.1109C8.13281 1.11007 8.2604 1.14397 8.37261 1.20908C8.48482 1.27419 8.57756 1.36814 8.64121 1.48119L11.7146 6.80468L14.7892 12.1294C14.8542 12.242 14.8884 12.3698 14.8884 12.4998C14.8884 12.6298 14.8541 12.7576 14.7891 12.8702C14.724 12.9828 14.6305 13.0763 14.5178 13.1412C14.4052 13.2062 14.2774 13.2403 14.1474 13.2403H1.85262C1.72258 13.2403 1.59482 13.2062 1.48217 13.1412C1.36952 13.0763 1.27596 12.9828 1.21091 12.8702C1.14585 12.7576 1.11159 12.6298 1.11157 12.4998C1.11155 12.3698 1.14577 12.242 1.21079 12.1294L4.28417 6.80468L7.36126 1.48119C7.42531 1.36768 7.51866 1.27344 7.63155 1.20831C7.74445 1.14317 7.87276 1.10954 8.00309 1.1109V1.1109ZM8.00309 3.85787e-05C7.67754 -0.00194505 7.35733 0.0827549 7.07534 0.245441C6.79335 0.408127 6.55975 0.642936 6.39851 0.925756L3.32636 6.24925L0.248045 11.574C0.0854976 11.8555 -5.20459e-05 12.1749 2.37548e-08 12.5C5.20934e-05 12.8251 0.0857041 13.1444 0.248342 13.4259C0.41098 13.7074 0.644869 13.9411 0.926488 14.1035C1.20811 14.2659 1.52753 14.3513 1.85262 14.3511H14.1474C14.4725 14.3513 14.7919 14.2659 15.0735 14.1035C15.3551 13.9411 15.589 13.7074 15.7517 13.4259C15.9143 13.1444 15.9999 12.8251 16 12.5C16.0001 12.1749 15.9145 11.8555 15.752 11.574L12.6786 6.24925L9.60643 0.925756C9.44529 0.64285 9.2117 0.40797 8.92969 0.245271C8.64768 0.0825722 8.32742 -0.0020735 8.00185 3.85787e-05H8.00309Z" fill="#CD3B3B"/>
<path d="M8.50913 9.27186H7.49702L7.11932 5.19006H8.88806L8.50913 9.27186ZM7.28348 11.3035V9.92356H8.7239V11.3035H7.28348Z" fill="#CD3B3B"/>
</svg>
