<svg width="12" height="12" viewBox="0 0 12 12" fill="none" xmlns="http://www.w3.org/2000/svg">
<path d="M6.54884 2.60095H2.4921C2.45468 2.60095 2.41667 2.60095 2.37926 2.60095C1.73827 2.63061 1.13344 2.90365 0.690377 3.36338C0.247317 3.82311 7.67245e-05 4.4342 0 5.06973L0 9.08396C0.000479016 9.73853 0.263154 10.3662 0.730374 10.8291C1.19759 11.2921 1.83119 11.5525 2.4921 11.5533H6.54884C7.12375 11.5526 7.68077 11.3553 8.12573 10.9948C8.57069 10.6342 8.87629 10.1326 8.99086 9.57461C9.02392 9.41392 9.0405 9.25034 9.04034 9.08635V5.06973C9.03954 4.41542 8.77682 3.78812 8.30979 3.32534C7.84275 2.86256 7.20949 2.60206 6.54884 2.60095V2.60095ZM6.54884 10.777H2.4921C2.03898 10.7767 1.60454 10.5982 1.28431 10.2807C0.964081 9.96319 0.784277 9.53273 0.784437 9.08396V5.06973C0.784888 4.64921 0.943391 4.24391 1.22907 3.93281C1.51474 3.6217 1.90713 3.42707 2.32978 3.38683C2.38372 3.38151 2.43789 3.37892 2.4921 3.37906H6.54884C7.00128 3.37969 7.43498 3.55806 7.75478 3.87502C8.07459 4.19198 8.25437 4.62164 8.25469 5.06973V9.08396C8.25453 9.5321 8.0748 9.96186 7.75496 10.2789C7.43512 10.5958 7.00132 10.7742 6.54884 10.7746V10.777Z" fill="#01B7F5"/>
<path d="M9.50669 0H5.45115C4.87582 0.000619177 4.31837 0.198092 3.87315 0.558997C3.42792 0.919902 3.12228 1.42207 3.00793 1.98052C3.04535 1.98052 3.08336 1.98052 3.12077 1.98052H3.81832C3.92392 1.63285 4.13973 1.32809 4.4338 1.11132C4.72786 0.894557 5.08458 0.777302 5.45115 0.776909H9.50669C9.95949 0.777068 10.3937 0.955325 10.7138 1.27248C11.0339 1.58964 11.2137 2.01973 11.2137 2.46818V6.486C11.2132 6.90617 11.0547 7.31108 10.7693 7.62194C10.4839 7.93279 10.0919 8.12734 9.66961 8.16771V8.46652C9.66977 8.63051 9.6532 8.79409 9.62013 8.95478C10.2607 8.92529 10.8653 8.65273 11.3084 8.19363C11.7515 7.73452 11.9991 7.1241 12 6.48899V2.46818C11.999 1.81366 11.736 1.18624 11.2686 0.72354C10.8012 0.260837 10.1676 0.000632308 9.50669 0V0Z" fill="#01B7F5"/>
</svg>
