<svg width="18" height="18" viewBox="0 0 18 18" fill="none" xmlns="http://www.w3.org/2000/svg">
<path d="M13.9235 2.80264C14.4468 2.80329 14.9485 3.01145 15.3185 3.38147C15.6885 3.75149 15.8967 4.25316 15.8973 4.77645V13.359C15.8967 13.8823 15.6885 14.384 15.3185 14.754C14.9485 15.124 14.4468 15.3322 13.9235 15.3328H4.0765C3.55321 15.3322 3.05154 15.124 2.68152 14.754C2.3115 14.384 2.10334 13.8823 2.10269 13.359V4.78258C2.1022 4.52295 2.15288 4.26577 2.25183 4.02573C2.35078 3.78569 2.49605 3.56751 2.67935 3.38364C2.86266 3.19977 3.08039 3.05382 3.32012 2.95413C3.55985 2.85444 3.81687 2.80296 4.0765 2.80264H13.9235ZM13.9235 1.69995H4.0765C3.26056 1.69995 2.47804 2.02408 1.90109 2.60104C1.32413 3.17799 1 3.96051 1 4.77645L1 13.359C1 14.175 1.32413 14.9575 1.90109 15.5345C2.47804 16.1114 3.26056 16.4355 4.0765 16.4355H13.9235C14.7394 16.4355 15.522 16.1114 16.0989 15.5345C16.6759 14.9575 17 14.175 17 13.359V4.78258C17.0008 4.37805 16.9218 3.97734 16.7676 3.60337C16.6133 3.2294 16.3868 2.88953 16.1011 2.6032C15.8153 2.31687 15.4759 2.08971 15.1022 1.93472C14.7286 1.77973 14.328 1.69995 13.9235 1.69995V1.69995Z" fill="#1B94D3"/>
<path d="M13.6429 5.99795H4.31416C4.16794 5.99795 4.0277 5.93986 3.9243 5.83647C3.82091 5.73307 3.76282 5.59283 3.76282 5.44661C3.76282 5.30038 3.82091 5.16015 3.9243 5.05675C4.0277 4.95335 4.16794 4.89526 4.31416 4.89526H13.6429C13.7891 4.89526 13.9294 4.95335 14.0328 5.05675C14.1362 5.16015 14.1942 5.30038 14.1942 5.44661C14.1942 5.59283 14.1362 5.73307 14.0328 5.83647C13.9294 5.93986 13.7891 5.99795 13.6429 5.99795Z" fill="#1B94D3"/>
<path d="M13.6638 8.41165H4.33626C4.19003 8.41165 4.04979 8.35356 3.9464 8.25016C3.843 8.14677 3.78491 8.00653 3.78491 7.8603C3.78491 7.71408 3.843 7.57384 3.9464 7.47044C4.04979 7.36705 4.19003 7.30896 4.33626 7.30896H13.6638C13.81 7.30896 13.9502 7.36705 14.0536 7.47044C14.157 7.57384 14.2151 7.71408 14.2151 7.8603C14.2151 8.00653 14.157 8.14677 14.0536 8.25016C13.9502 8.35356 13.81 8.41165 13.6638 8.41165Z" fill="#1B94D3"/>
<path d="M13.6858 10.8266H4.35707C4.21084 10.8266 4.07061 10.7685 3.96721 10.6651C3.86381 10.5617 3.80573 10.4214 3.80573 10.2752C3.80573 10.129 3.86381 9.98876 3.96721 9.88536C4.07061 9.78197 4.21084 9.72388 4.35707 9.72388H13.6858C13.832 9.72388 13.9723 9.78197 14.0757 9.88536C14.1791 9.98876 14.2372 10.129 14.2372 10.2752C14.2372 10.4214 14.1791 10.5617 14.0757 10.6651C13.9723 10.7685 13.832 10.8266 13.6858 10.8266V10.8266Z" fill="#1B94D3"/>
<path d="M9.55439 13.2401H4.37788C4.23166 13.2401 4.09142 13.182 3.98802 13.0787C3.88463 12.9753 3.82654 12.835 3.82654 12.6888C3.82654 12.5426 3.88463 12.4023 3.98802 12.2989C4.09142 12.1955 4.23166 12.1375 4.37788 12.1375H9.55439C9.70062 12.1375 9.84085 12.1955 9.94425 12.2989C10.0476 12.4023 10.1057 12.5426 10.1057 12.6888C10.1057 12.835 10.0476 12.9753 9.94425 13.0787C9.84085 13.182 9.70062 13.2401 9.55439 13.2401Z" fill="#1B94D3"/>
</svg>
