<svg width="30" height="30" viewBox="0 0 30 30" fill="none" xmlns="http://www.w3.org/2000/svg">
<path d="M14.9992 16.7801C13.4387 16.7801 11.9133 16.3173 10.6158 15.4504C9.31825 14.5834 8.30697 13.3511 7.70979 11.9094C7.11261 10.4677 6.95636 8.88129 7.2608 7.35077C7.56524 5.82025 8.31669 4.41438 9.42013 3.31094C10.5236 2.2075 11.9294 1.45605 13.46 1.15161C14.9905 0.84717 16.5769 1.00342 18.0186 1.6006C19.4603 2.19778 20.6926 3.20906 21.5596 4.50657C22.4265 5.80408 22.8893 7.32954 22.8893 8.89004C22.887 10.9819 22.055 12.9874 20.5758 14.4666C19.0966 15.9458 17.0911 16.7778 14.9992 16.7801V16.7801ZM14.9992 2.73045C13.7806 2.73045 12.5894 3.09183 11.5762 3.76887C10.563 4.44592 9.77332 5.40823 9.30704 6.53409C8.84077 7.65996 8.71885 8.89881 8.95669 10.094C9.19453 11.2891 9.78146 12.3869 10.6432 13.2485C11.505 14.1101 12.6029 14.6967 13.7982 14.9343C14.9934 15.1719 16.2322 15.0497 17.358 14.5831C18.4837 14.1166 19.4458 13.3267 20.1226 12.3133C20.7994 11.3 21.1605 10.1086 21.1603 8.89004C21.1583 7.25675 20.5086 5.69093 19.3535 4.53615C18.1985 3.38138 16.6325 2.73198 14.9992 2.73045V2.73045Z" fill="#B87A0C"/>
<path d="M26.6355 29.1468C26.4062 29.1468 26.1863 29.0557 26.0242 28.8936C25.8621 28.7315 25.771 28.5116 25.771 28.2823V27.2953C25.7691 25.7729 25.1633 24.3133 24.0867 23.2369C23.01 22.1605 21.5503 21.5551 20.0278 21.5536H9.97075C8.44841 21.5551 6.98887 22.1605 5.91241 23.237C4.83595 24.3134 4.23053 25.773 4.22901 27.2953V28.2823C4.22901 28.5116 4.13793 28.7315 3.9758 28.8936C3.81367 29.0557 3.59378 29.1468 3.3645 29.1468C3.13522 29.1468 2.91533 29.0557 2.75321 28.8936C2.59108 28.7315 2.5 28.5116 2.5 28.2823V27.2953C2.50229 25.3147 3.29012 23.4158 4.69066 22.0152C6.0912 20.6147 7.99009 19.8269 9.97075 19.8246H20.0278C22.0086 19.8269 23.9076 20.6147 25.3084 22.0152C26.7092 23.4157 27.4973 25.3145 27.5 27.2953V28.2823C27.5 28.5116 27.4089 28.7315 27.2468 28.8936C27.0847 29.0557 26.8648 29.1468 26.6355 29.1468V29.1468Z" fill="#B87A0C"/>
</svg>
