<svg width="70" height="70" viewBox="0 0 70 70" fill="none" xmlns="http://www.w3.org/2000/svg">
<path d="M60.2268 10.4803C59.6882 10.1658 59.0757 10 58.452 10C57.8283 10 57.2158 10.1658 56.6772 10.4803L36.1053 22.2445H20.3033C19.4368 22.2454 18.6061 22.59 17.9934 23.2027C17.3807 23.8154 17.036 24.6462 17.0351 25.5127V25.5127H10.9903C10.465 25.5131 9.94495 25.6172 9.45992 25.8189C8.97488 26.0207 8.53442 26.3161 8.16375 26.6884C7.79308 27.0606 7.49949 27.5023 7.2998 27.9882C7.10011 28.4741 6.99824 28.9946 7.00002 29.5199V38.4973C7.00092 39.5556 7.42151 40.5704 8.16954 41.3191C8.91758 42.0678 9.93201 42.4892 10.9903 42.491H17.0351V42.5079C17.036 43.3745 17.3807 44.2052 17.9934 44.8179C18.6061 45.4306 19.4368 45.7752 20.3033 45.7761H21.5781L18.1268 51.7803C17.4337 53.037 17.2611 54.5154 17.6461 55.8981C18.031 57.2807 18.9428 58.4572 20.1857 59.1749C21.4285 59.8927 22.9032 60.0944 24.2932 59.7368C25.6831 59.3792 26.8774 58.4907 27.6195 57.2623L34.2508 45.7761H36.1053L56.6772 57.5505C57.2159 57.8647 57.8284 58.0302 58.452 58.0302C59.0757 58.0302 59.6881 57.8647 60.2268 57.5505C60.7689 57.2407 61.2187 56.7924 61.5303 56.2514C61.8419 55.7105 62.004 55.0964 61.9999 54.4721V13.5553C62.0037 12.9315 61.8415 12.318 61.5299 11.7776C61.2183 11.2372 60.7686 10.7895 60.2268 10.4803V10.4803ZM17.0351 40.4569H10.9903C10.4712 40.456 9.97367 40.2491 9.60691 39.8817C9.24016 39.5143 9.03417 39.0164 9.03417 38.4973V29.5199C9.03506 29.0014 9.24145 28.5044 9.60811 28.1377C9.97477 27.771 10.4718 27.5647 10.9903 27.5638H17.0351V40.4569ZM25.8498 56.2452C25.6234 56.6377 25.3218 56.9817 24.9623 57.2574C24.6028 57.5332 24.1924 57.7353 23.7546 57.8522C23.4626 57.9301 23.1618 57.97 22.8596 57.9708C22.2553 57.9684 21.6622 57.8073 21.1398 57.5036C20.6173 57.2 20.1837 56.7646 19.8823 56.2408C19.5809 55.717 19.4224 55.1233 19.4225 54.519C19.4226 53.9147 19.5814 53.321 19.8829 52.7973L23.9512 45.7761H31.9014L25.8498 56.2452ZM36.051 43.742H20.3033C19.9763 43.7411 19.663 43.6108 19.4317 43.3796C19.2005 43.1483 19.0702 42.835 19.0693 42.5079V25.5127C19.0693 25.1854 19.1993 24.8715 19.4307 24.6401C19.6622 24.4086 19.976 24.2786 20.3033 24.2786H36.051V43.742ZM59.9658 54.4619C59.966 54.7287 59.896 54.9909 59.7629 55.2221C59.6299 55.4534 59.4384 55.6456 59.2076 55.7795C58.9769 55.9134 58.715 55.9843 58.4482 55.9851C58.1814 55.986 57.9191 55.9166 57.6875 55.7841L38.0852 44.576V23.4514L57.6875 12.2331C57.9193 12.1017 58.1814 12.0332 58.4478 12.0345C58.7141 12.0358 58.9756 12.1069 59.206 12.2406C59.4364 12.3743 59.6277 12.5661 59.761 12.7967C59.8943 13.0273 59.9649 13.2889 59.9658 13.5553V54.4619Z" fill="#5FAEC9"/>
</svg>
