<svg width="30" height="30" viewBox="0 0 30 30" fill="none" xmlns="http://www.w3.org/2000/svg">
<path d="M19.6296 3.5H6.75181C5.62416 3.5 4.54269 3.94796 3.74533 4.74532C2.94796 5.54269 2.5 6.62416 2.5 7.7518L2.5 22.3194C2.50511 23.446 2.95491 24.525 3.75154 25.3216C4.54817 26.1183 5.62716 26.5681 6.75375 26.5732H23.2462C24.3739 26.5716 25.455 26.123 26.2524 25.3256C27.0498 24.5282 27.4985 23.4471 27.5 22.3194V11.3704C27.5 11.2319 27.4728 11.0947 27.4198 10.9668C27.3668 10.8388 27.2891 10.7225 27.1912 10.6245L20.3696 3.80883C20.1732 3.61247 19.9073 3.5015 19.6296 3.5V3.5ZM20.5872 6.53395L24.4622 10.4187H23.0617C22.4046 10.4171 21.7749 10.1548 21.3109 9.68942C20.847 9.22401 20.5867 8.59349 20.5872 7.93633V6.53395ZM25.7208 22.3117C25.7208 22.968 25.4601 23.5974 24.996 24.0614C24.532 24.5255 23.9025 24.7862 23.2462 24.7862H6.75181C6.09601 24.7852 5.46739 24.5241 5.00385 24.0602C4.54032 23.5963 4.27971 22.9675 4.27919 22.3117V7.74404C4.28125 7.08961 4.54266 6.46268 5.00615 6.00066C5.46963 5.53863 6.09737 5.27919 6.75181 5.27919H18.8157V7.93827C18.8157 9.06592 19.2637 10.1474 20.0611 10.9448C20.8584 11.7421 21.9399 12.1901 23.0676 12.1901H25.7266L25.7208 22.3117Z" fill="#01B7F5"/>
<path d="M15.3059 9.65528H7.89389C7.66208 9.65528 7.43976 9.56319 7.27584 9.39928C7.11192 9.23536 7.01984 9.01304 7.01984 8.78122C7.01984 8.54941 7.11192 8.32709 7.27584 8.16317C7.43976 7.99925 7.66208 7.90717 7.89389 7.90717H15.3059C15.5377 7.90717 15.76 7.99925 15.924 8.16317C16.0879 8.32709 16.18 8.54941 16.18 8.78122C16.18 9.01304 16.0879 9.23536 15.924 9.39928C15.76 9.56319 15.5377 9.65528 15.3059 9.65528V9.65528Z" fill="#01B7F5"/>
<path d="M15.3059 13.8236H7.89389C7.66208 13.8236 7.43976 13.7315 7.27584 13.5676C7.11192 13.4037 7.01984 13.1814 7.01984 12.9496C7.01984 12.7177 7.11192 12.4954 7.27584 12.3315C7.43976 12.1676 7.66208 12.0755 7.89389 12.0755H15.3059C15.5377 12.0755 15.76 12.1676 15.924 12.3315C16.0879 12.4954 16.18 12.7177 16.18 12.9496C16.18 13.1814 16.0879 13.4037 15.924 13.5676C15.76 13.7315 15.5377 13.8236 15.3059 13.8236V13.8236Z" fill="#01B7F5"/>
<path d="M22.1061 17.9899H7.89389C7.66208 17.9899 7.43976 17.8978 7.27584 17.7339C7.11192 17.57 7.01984 17.3477 7.01984 17.1159C7.01984 16.8841 7.11192 16.6617 7.27584 16.4978C7.43976 16.3339 7.66208 16.2418 7.89389 16.2418H22.1061C22.3379 16.2418 22.5602 16.3339 22.7241 16.4978C22.888 16.6617 22.9801 16.8841 22.9801 17.1159C22.9801 17.3477 22.888 17.57 22.7241 17.7339C22.5602 17.8978 22.3379 17.9899 22.1061 17.9899Z" fill="#01B7F5"/>
<path d="M22.1061 22.1582H7.89389C7.66208 22.1582 7.43976 22.0661 7.27584 21.9022C7.11192 21.7383 7.01984 21.516 7.01984 21.2842C7.01984 21.0523 7.11192 20.83 7.27584 20.6661C7.43976 20.5022 7.66208 20.4101 7.89389 20.4101H22.1061C22.3379 20.4101 22.5602 20.5022 22.7241 20.6661C22.888 20.83 22.9801 21.0523 22.9801 21.2842C22.9801 21.516 22.888 21.7383 22.7241 21.9022C22.5602 22.0661 22.3379 22.1582 22.1061 22.1582Z" fill="#01B7F5"/>
</svg>
