<svg width="30" height="30" viewBox="0 0 30 30" fill="none" xmlns="http://www.w3.org/2000/svg">
<g clip-path="url(#clip0_302_359)">
<path d="M29.9302 11.6697L29.9305 11.6696L29.9212 11.5927C29.9211 11.5914 29.921 11.5904 29.9208 11.5891C29.9207 11.588 29.9206 11.5869 29.9204 11.5858L29.8856 11.2967C29.8786 11.2386 29.8706 11.1724 29.8615 11.097L29.8542 11.0369L29.8393 11.0387C29.4734 8.95751 28.4682 6.98245 26.9112 5.29603C25.3616 3.61771 23.3483 2.29257 21.0891 1.46388C19.1534 0.753866 17.0995 0.393799 14.9847 0.393799C12.1297 0.393799 9.35688 1.06527 6.96621 2.33557C2.35616 4.78502 -0.362707 9.28733 0.0391439 13.8058C0.247151 16.144 1.16315 18.3696 2.6882 20.2424C4.12361 22.0051 6.06539 23.4276 8.30349 24.356C9.67962 24.9268 11.0403 25.1958 12.4809 25.4806L12.6496 25.514C13.0463 25.5925 13.1529 25.7004 13.1804 25.7431C13.2313 25.8224 13.2047 25.9787 13.1843 26.0648C13.1655 26.1442 13.146 26.2234 13.1266 26.3028C12.9719 26.9336 12.812 27.5859 12.9376 28.3051C13.0821 29.1319 13.5984 29.6061 14.3541 29.6062C14.3542 29.6062 14.3542 29.6062 14.3543 29.6062C15.1672 29.6062 16.0924 29.0609 16.7046 28.7001L16.7864 28.652C18.2469 27.7943 19.6228 26.8268 20.6583 26.0798C22.9242 24.445 25.4925 22.5919 27.418 20.1947C29.3569 17.7802 30.2703 14.6776 29.9302 11.6697ZM9.34241 16.244H6.75426C6.36313 16.244 6.04606 15.927 6.04606 15.5358V10.1034C6.04606 9.71224 6.36313 9.39517 6.75426 9.39517C7.14539 9.39517 7.46246 9.71224 7.46246 10.1034V14.8276H9.34231C9.73344 14.8276 10.0505 15.1447 10.0505 15.5358C10.0506 15.927 9.73354 16.244 9.34241 16.244ZM12.0424 15.5166C12.0424 15.9077 11.7253 16.2248 11.3342 16.2248C10.943 16.2248 10.626 15.9077 10.626 15.5166V10.0841C10.626 9.69302 10.943 9.37595 11.3342 9.37595C11.7253 9.37595 12.0424 9.69302 12.0424 10.0841V15.5166ZM18.4438 15.5166C18.4438 15.8235 18.2463 16.0954 17.9544 16.1902C17.8824 16.2136 17.8086 16.2249 17.7358 16.2249C17.5133 16.2249 17.2984 16.1198 17.1625 15.9327L14.6123 12.4204V15.5167C14.6123 15.9078 14.2952 16.2249 13.9041 16.2249C13.513 16.2249 13.1959 15.9078 13.1959 15.5167V10.2396C13.1959 9.9328 13.3935 9.66085 13.6854 9.56605C13.9774 9.47136 14.297 9.57516 14.4772 9.82353L17.0275 13.3359V10.0841C17.0275 9.69302 17.3445 9.37595 17.7357 9.37595C18.1268 9.37595 18.4438 9.69302 18.4438 10.0841V15.5166ZM23.6043 16.1133H20.0992C19.7081 16.1133 19.391 15.7963 19.391 15.4051V12.689V9.97266C19.391 9.58153 19.7081 9.26446 20.0992 9.26446H23.4955C23.8866 9.26446 24.2037 9.58153 24.2037 9.97266C24.2037 10.3638 23.8866 10.6809 23.4955 10.6809H20.8074V11.9808H22.9888C23.38 11.9808 23.697 12.2979 23.697 12.689C23.697 13.0801 23.38 13.3972 22.9888 13.3972H20.8074V14.6969H23.6043C23.9954 14.6969 24.3125 15.014 24.3125 15.4051C24.3125 15.7963 23.9954 16.1133 23.6043 16.1133Z" fill="#4D7E98"/>
</g>
<defs>
<clipPath id="clip0_302_359">
<rect width="30" height="30" fill="white"/>
</clipPath>
</defs>
</svg>
