<svg width="70" height="70" viewBox="0 0 70 70" fill="none" xmlns="http://www.w3.org/2000/svg">
<path d="M56.9264 17.3811H43.2302V14.9699C43.2285 13.917 42.8092 12.9077 42.0644 12.1635C41.3196 11.4193 40.31 11.0009 39.2571 11H30.5396C29.4869 11.0009 28.4777 11.4194 27.7334 12.1637C26.9891 12.908 26.5705 13.9173 26.5697 14.9699V17.3811H12.8572C11.3054 17.3863 9.81856 18.005 8.72123 19.1024C7.6239 20.1997 7.00515 21.6865 7 23.2384V53.1428C7.00515 54.6946 7.6239 56.1814 8.72123 57.2788C9.81856 58.3761 11.3054 58.9949 12.8572 59H56.9264C58.4782 58.9949 59.9651 58.3761 61.0624 57.2788C62.1597 56.1814 62.7785 54.6946 62.7836 53.1428V23.2514C62.7819 21.6973 62.1647 20.2071 61.067 19.107C59.9693 18.0068 58.4805 17.3863 56.9264 17.3811ZM28.5221 14.9699C28.5229 14.4351 28.7358 13.9224 29.1139 13.5443C29.4921 13.1661 30.0047 12.9533 30.5396 12.9524H39.2571C39.7924 12.9524 40.3059 13.1649 40.6848 13.5431C41.0637 13.9214 41.277 14.4345 41.2778 14.9699V17.3811H28.5221V14.9699ZM12.8572 57.0736C11.8229 57.0693 10.8322 56.6566 10.1008 55.9252C9.36947 55.1938 8.95669 54.2031 8.95241 53.1688V23.2514C8.95669 22.2171 9.36947 21.2264 10.1008 20.495C10.8322 19.7636 11.8229 19.3508 12.8572 19.3466H17.4129V57.0931L12.8572 57.0736ZM19.3653 57.0736V19.327H50.4118V57.0736H19.3653ZM60.8345 53.1688C60.8302 54.2031 60.4174 55.1938 59.686 55.9252C58.9547 56.6566 57.9639 57.0693 56.9296 57.0736H52.374V19.327H56.9296C57.9639 19.3313 58.9547 19.7441 59.686 20.4755C60.4174 21.2068 60.8302 22.1975 60.8345 23.2318V53.1688Z" fill="#5FAEC9"/>
<path d="M42.8918 35.7696V40.6376H37.3339V46.1987H32.4659V40.6376H26.9048V35.7696H32.4659V30.2085H37.3339V35.7696H42.8918Z" fill="#5FAEC9"/>
</svg>
