<svg width="18" height="18" viewBox="0 0 18 18" fill="none" xmlns="http://www.w3.org/2000/svg">
<path d="M9.00057 2C4.3136 2 0.5 5.0183 0.5 8.72669C0.5 10.4033 1.27833 11.9373 2.56349 13.1161L2.88817 15.605L5.45395 14.8414C6.59117 15.2518 7.79154 15.4597 9.00057 15.4556C13.6864 15.4556 17.5 12.4373 17.5 8.72782C17.5 5.0183 13.6864 2 9.00057 2ZM9.00057 14.4363C7.97839 14.4395 6.96247 14.2768 5.99245 13.9544C5.82049 13.8963 5.65268 13.8337 5.48902 13.7666L4.0534 14.1943L3.74343 14.287L3.70383 13.985L3.52396 12.6127C3.36859 12.486 3.22152 12.354 3.08275 12.2167C2.10192 11.2517 1.51817 10.0401 1.51817 8.72669C1.51817 5.57942 4.87473 3.01817 9.00057 3.01817C13.1264 3.01817 16.4818 5.57942 16.4818 8.72669C16.4818 11.874 13.1253 14.4363 9.00057 14.4363Z" fill="#1B94D3"/>
<path d="M7.97223 5.46745C8.3753 5.33145 8.80136 5.27685 9.2257 5.30681C9.75309 5.33432 10.2663 5.48753 10.7224 5.75367C10.9913 5.90965 11.219 6.12764 11.3865 6.38946C11.5084 6.58946 11.5773 6.81723 11.5867 7.05127C11.6175 7.36992 11.5624 7.691 11.4272 7.98119C11.3401 8.20745 11.141 8.40769 10.8288 8.58078C10.6172 8.71201 10.3672 8.8489 10.081 8.99257C9.83095 9.09891 9.67822 9.24259 9.62166 9.42133C9.60014 9.52126 9.59404 9.62388 9.60356 9.72565C9.60093 9.82916 9.56142 9.92833 9.49214 10.0053C9.42286 10.0822 9.32837 10.1319 9.2257 10.1454C9.10216 10.1706 8.97479 10.1706 8.85124 10.1454C8.60236 10.0809 8.46434 9.94965 8.43945 9.7528V9.09891C8.47678 8.85455 8.62725 8.63395 8.89197 8.4371C9.12866 8.28761 9.37952 8.1618 9.64089 8.06151C9.73479 8.01966 9.85923 7.95743 10.0153 7.87372C10.271 7.71307 10.4136 7.52867 10.4452 7.31938C10.4897 6.87214 10.2216 6.57047 9.64089 6.41435C9.14237 6.31856 8.73397 6.32724 8.41569 6.44037C8.17812 6.51579 7.94734 6.70962 7.72334 7.02185C7.62944 7.14177 7.54233 7.26056 7.46088 7.37934C7.37788 7.47683 7.26734 7.54693 7.14378 7.58044C7.02022 7.61396 6.8894 7.60932 6.76853 7.56714C6.64348 7.52259 6.53919 7.4336 6.47552 7.31712C6.36918 7.12593 6.39407 6.88836 6.55018 6.60214C6.72639 6.31547 6.95698 6.06605 7.22896 5.86793C7.45354 5.69529 7.70452 5.56005 7.97223 5.46745V5.46745ZM8.61707 11.0221C8.8383 10.9373 9.08075 10.9251 9.30942 10.987C9.81473 11.1424 10.0301 11.4441 9.95539 11.8921C9.91261 12.0296 9.83764 12.1549 9.7367 12.2576C9.63577 12.3603 9.51178 12.4375 9.37503 12.4826C9.10115 12.574 8.80243 12.5549 8.5424 12.4294C8.18717 12.2198 8.03143 11.9558 8.07517 11.6375C8.11816 11.3706 8.29879 11.1654 8.61707 11.0221Z" fill="#1B94D3"/>
</svg>
