<svg width="18" height="18" viewBox="0 0 18 18" fill="none" xmlns="http://www.w3.org/2000/svg">
<path d="M8.98753 17.4195L8.75715 17.3007C7.52748 16.6269 6.39591 15.7878 5.39401 14.8069C3.1733 12.6384 2 10.1161 2 7.50939C2.02398 5.66867 2.77203 3.91147 4.08217 2.61827C5.39232 1.32508 7.15912 0.599976 9 0.599976C10.8409 0.599976 12.6077 1.32508 13.9178 2.61827C15.228 3.91147 15.976 5.66867 16 7.50939C16 10.2562 14.8243 12.8249 12.6012 14.9375C11.6012 15.895 10.4622 16.6958 9.22267 17.3126L8.98753 17.4195ZM9.00653 1.57878C7.43298 1.57878 5.92377 2.20338 4.81043 3.31538C3.6971 4.42739 3.07068 5.93584 3.06879 7.50939C3.06879 12.49 7.88786 15.5705 9.00653 16.2212C10.1335 15.6275 14.9265 12.7643 14.9265 7.50939C14.9246 5.93892 14.3006 4.43316 13.1911 3.32167C12.0816 2.21017 10.577 1.58349 9.00653 1.57878V1.57878Z" fill="#1B94D3"/>
<path d="M9.0065 9.7123C8.50236 9.71347 8.0092 9.56509 7.5894 9.28594C7.1696 9.00678 6.84203 8.60938 6.64813 8.14402C6.45423 7.67866 6.4027 7.16625 6.50008 6.6716C6.59745 6.17695 6.83935 5.7223 7.19516 5.36515C7.55098 5.00801 8.00473 4.76442 8.49901 4.6652C8.9933 4.56598 9.5059 4.61559 9.97198 4.80776C10.4381 4.99992 10.8367 5.32601 11.1174 5.74476C11.3981 6.16351 11.5483 6.65612 11.549 7.16026C11.549 7.83546 11.2815 8.48314 10.8049 8.96147C10.3284 9.4398 9.6817 9.70978 9.0065 9.7123V9.7123ZM9.0065 5.68414C8.71345 5.68297 8.42664 5.76884 8.18245 5.93087C7.93826 6.0929 7.74769 6.32379 7.63489 6.59427C7.52209 6.86475 7.49214 7.16263 7.54885 7.45015C7.60556 7.73767 7.74637 8.00187 7.95343 8.20926C8.16049 8.41665 8.42446 8.55789 8.71189 8.61506C8.99932 8.67223 9.29725 8.64277 9.56791 8.53041C9.83857 8.41804 10.0698 8.22784 10.2322 7.98391C10.3946 7.73998 10.481 7.45332 10.4802 7.16026C10.4787 6.76966 10.323 6.39547 10.047 6.11905C9.77104 5.84263 9.3971 5.68633 9.0065 5.68414V5.68414Z" fill="#1B94D3"/>
</svg>
