<svg width="18" height="18" viewBox="0 0 18 18" fill="none" xmlns="http://www.w3.org/2000/svg">
<circle cx="9" cy="9" r="8.5" stroke="#A0A5BD"/>
<path d="M8.41994 10.2904H9.33482C9.03358 8.61688 11.7001 8.27101 11.7001 6.5863C11.7001 5.30325 10.696 4.49994 9.12284 4.49994C7.90672 4.49994 7.03647 5.01316 6.30011 5.79415L6.90259 6.35201C7.5497 5.67143 8.25259 5.33672 9.01127 5.33672C10.1493 5.33672 10.7071 5.89457 10.7071 6.6644C10.7071 7.9363 8.07408 8.43837 8.41994 10.2904ZM8.8997 13.0462C9.29019 13.0462 9.61375 12.7561 9.61375 12.3099C9.61375 11.8636 9.29019 11.5623 8.8997 11.5623C8.49804 11.5623 8.17449 11.8636 8.17449 12.3099C8.17449 12.7561 8.49804 13.0462 8.8997 13.0462Z" fill="#A0A5BD"/>
</svg>
