<svg width="30" height="30" viewBox="0 0 30 30" fill="none" xmlns="http://www.w3.org/2000/svg">
<path fill-rule="evenodd" clip-rule="evenodd" d="M8.00568 3.57103C6.43205 3.57103 4.92285 4.19602 3.80994 5.30855C2.69711 6.42101 2.07164 7.92987 2.07103 9.50337C2.07103 9.50349 2.07103 9.5036 2.07103 9.50372V15.4863C2.07103 17.0603 2.69628 18.5698 3.80925 19.6828C4.92221 20.7957 6.43171 21.421 8.00568 21.421H21.8878L27.929 26.0931V9.50568C27.929 8.72633 27.7755 7.95461 27.4772 7.23459C27.179 6.51456 26.7418 5.86033 26.1908 5.30925C25.6397 4.75816 24.9854 4.32102 24.2654 4.02278C23.5454 3.72453 22.7737 3.57103 21.9943 3.57103H8.00568ZM28.0962 26.2254L27.4641 27.0427L28.1169 26.2388C28.1104 26.2336 28.1035 26.2291 28.0962 26.2254ZM26.8227 27.8557L21.1804 23.492H8.00568C5.88244 23.492 3.84616 22.6486 2.34481 21.1472C0.843453 19.6459 0 17.6096 0 15.4863L1.09727e-07 9.50303C0.000700827 7.38025 0.844463 5.34466 2.34574 3.84387C3.84702 2.34309 5.8829 1.5 8.00568 1.5H21.9943C23.0456 1.5 24.0867 1.70707 25.058 2.1094C26.0293 2.51172 26.9118 3.10141 27.6552 3.84481C28.3986 4.5882 28.9883 5.47074 29.3906 6.44204C29.7929 7.41333 30 8.45436 30 9.50568V26.293C30.0066 26.6613 29.9091 27.0242 29.7184 27.3397C29.525 27.6598 29.2438 27.9177 28.9083 28.0829C28.5728 28.2481 28.1969 28.3137 27.8252 28.2718C27.4584 28.2304 27.1109 28.0861 26.8227 27.8557Z" fill="#1B94D3"/>
<path fill-rule="evenodd" clip-rule="evenodd" d="M6.85278 9.61846C6.85278 9.04656 7.3164 8.58295 7.8883 8.58295H21.992C22.5639 8.58295 23.0275 9.04656 23.0275 9.61846C23.0275 10.1904 22.5639 10.654 21.992 10.654H7.8883C7.3164 10.654 6.85278 10.1904 6.85278 9.61846Z" fill="#1B94D3"/>
<path fill-rule="evenodd" clip-rule="evenodd" d="M6.85278 14.8812C6.85278 14.3093 7.3164 13.8456 7.8883 13.8456H17.0077C17.5796 13.8456 18.0432 14.3093 18.0432 14.8812C18.0432 15.4531 17.5796 15.9167 17.0077 15.9167H7.8883C7.3164 15.9167 6.85278 15.4531 6.85278 14.8812Z" fill="#1B94D3"/>
</svg>
