<svg width="18" height="18" viewBox="0 0 18 18" fill="none" xmlns="http://www.w3.org/2000/svg">
<path d="M14.666 16.4936C14.4252 16.4945 14.1867 16.448 13.964 16.3565C13.7413 16.2651 13.5388 16.1307 13.3681 15.9609L8.22912 10.8164C7.32486 11.1893 6.32958 11.2827 5.37172 11.0845C4.41387 10.8862 3.53741 10.4055 2.85546 9.70426C2.13531 8.95946 1.67419 8.00253 1.54039 6.97518C1.40659 5.94784 1.60722 4.90472 2.11257 4.0003L2.43508 3.41868L5.33321 6.31681C5.39828 6.38187 5.47552 6.43348 5.56052 6.46869C5.64553 6.5039 5.73664 6.52203 5.82865 6.52203C5.92067 6.52203 6.01178 6.5039 6.09679 6.46869C6.18179 6.43348 6.25903 6.38187 6.3241 6.31681C6.38916 6.25175 6.44077 6.17451 6.47598 6.0895C6.51119 6.00449 6.52931 5.91338 6.52931 5.82137C6.52931 5.72936 6.51119 5.63824 6.47598 5.55324C6.44077 5.46823 6.38916 5.39099 6.3241 5.32593L3.42596 2.42668L4.00759 2.10529C4.88892 1.61806 5.90009 1.41733 6.90071 1.53098C7.90132 1.64463 8.84172 2.06701 9.59133 2.73947C10.341 3.41194 10.8626 4.30113 11.0838 5.28357C11.3051 6.26601 11.2149 7.29296 10.8259 8.22183L15.9638 13.3597C16.2205 13.6164 16.3954 13.9434 16.4662 14.2994C16.5371 14.6554 16.5008 15.0245 16.3618 15.3598C16.2229 15.6952 15.9876 15.9818 15.6857 16.1835C15.3839 16.3851 15.029 16.4926 14.666 16.4925V16.4936ZM8.4382 9.60529L14.0821 15.2492C14.199 15.3656 14.3477 15.4448 14.5095 15.4768C14.6713 15.5088 14.839 15.4922 14.9913 15.429C15.1437 15.3658 15.274 15.259 15.3657 15.1219C15.4574 14.9848 15.5065 14.8236 15.5067 14.6587C15.507 14.5491 15.4856 14.4406 15.4436 14.3394C15.4016 14.2382 15.3399 14.1464 15.262 14.0693L9.61258 8.42535L9.77939 8.10173C10.1282 7.42003 10.2657 6.64976 10.1743 5.88947C10.0829 5.12918 9.76669 4.41346 9.26618 3.8339C8.76568 3.25434 8.10363 2.8373 7.36476 2.63614C6.62589 2.43498 5.8438 2.45885 5.11858 2.70471L7.0325 4.61752C7.34538 4.93812 7.5193 5.36911 7.51657 5.81707C7.51384 6.26503 7.33467 6.69386 7.01791 7.01062C6.70115 7.32739 6.27232 7.50655 5.82436 7.50928C5.3764 7.51201 4.94541 7.33809 4.62481 7.02522L2.70977 5.11018C2.48101 5.7769 2.44096 6.49388 2.59403 7.18193C2.74711 7.86999 3.08736 8.50235 3.57721 9.0092C4.15303 9.60219 4.90313 9.99586 5.71825 10.1329C6.53338 10.2699 7.37096 10.1431 8.10902 9.77099L8.4382 9.60529Z" fill="#1B94D3"/>
</svg>
